<svg xmlns="http://www.w3.org/2000/svg" xmlns:xlink="http://www.w3.org/1999/xlink" width="56.339" height="56.5" viewBox="0 0 56.339 56.5"><defs><clipPath id="a"><rect width="56.339" height="56.5" fill="#ec4e6e"/></clipPath></defs><g clip-path="url(#a)"><path d="M43.9,87.692H12.435A12.448,12.448,0,0,1,0,75.257V66.367A12.448,12.448,0,0,1,12.435,53.932H43.9A12.449,12.449,0,0,1,56.339,66.367v8.891A12.449,12.449,0,0,1,43.9,87.692M12.435,56.04A10.338,10.338,0,0,0,2.108,66.367v8.891A10.338,10.338,0,0,0,12.435,85.584H43.9A10.338,10.338,0,0,0,54.23,75.257V66.367A10.338,10.338,0,0,0,43.9,56.04Z" transform="translate(0 -31.192)" fill="#ec4e6e"/><rect width="2.53" height="33.079" transform="translate(26.799 2.743)" fill="#ec4e6e"/><path d="M62.716,11.126l-1.853,1.726L52.372,3.715l-8.494,9.137-1.853-1.726L52.372,0Z" transform="translate(-24.306 0)" fill="#ec4e6e"/></g></svg>