<svg xmlns="http://www.w3.org/2000/svg" xmlns:xlink="http://www.w3.org/1999/xlink" width="450" height="150" viewBox="0 0 450 150"><defs><clipPath id="a"><rect width="128.193" height="102.279" fill="none"/></clipPath><clipPath id="b"><rect width="83" height="97.58" fill="none"/></clipPath><clipPath id="c"><rect width="85.906" height="85.906" fill="none"/></clipPath></defs><g transform="translate(300)"><g transform="translate(10.904 26.177)"><path d="M130.978,92.77,128.861,90.8,120.6,99.68V64.554h-2.89V99.686L109.455,90.8l-2.117,1.972,11.818,12.712Z" transform="translate(-55.63 -33.456)" fill="#fff"/><g clip-path="url(#a)"><path d="M0,.506H3.328A4.317,4.317,0,0,1,4.484.654a2.738,2.738,0,0,1,.92.44,2.051,2.051,0,0,1,.609.744A2.378,2.378,0,0,1,6.236,2.9a1.955,1.955,0,0,1-.46,1.346,2.682,2.682,0,0,1-1.19.765v.027a2.014,2.014,0,0,1,.812.223,2.223,2.223,0,0,1,.656.514,2.488,2.488,0,0,1,.6,1.644,2.388,2.388,0,0,1-.264,1.143,2.459,2.459,0,0,1-.724.832A3.36,3.36,0,0,1,4.6,9.908a4.714,4.714,0,0,1-1.312.176H0ZM1.3,4.483H3.071a3.053,3.053,0,0,0,.69-.074,1.539,1.539,0,0,0,.568-.25,1.274,1.274,0,0,0,.385-.447,1.415,1.415,0,0,0,.142-.663,1.455,1.455,0,0,0-.366-.988,1.447,1.447,0,0,0-1.15-.419H1.3Zm0,4.465H3.205a3.918,3.918,0,0,0,.657-.061,1.96,1.96,0,0,0,.67-.243,1.67,1.67,0,0,0,.527-.493,1.427,1.427,0,0,0,.216-.826,1.511,1.511,0,0,0-.554-1.278,2.4,2.4,0,0,0-1.5-.426H1.3Z" transform="translate(0 -0.262)" fill="#fff"/><path d="M17.494.505h1.935l3.044,7.252h.054L25.543.505h1.935v9.578h-1.3V2.21h-.027l-3.233,7.874h-.866L18.82,2.21h-.027v7.874h-1.3Z" transform="translate(-9.067 -0.262)" fill="#fff"/><path d="M43.134.5H46.5a3.943,3.943,0,0,1,1.515.251,2.566,2.566,0,0,1,.94.636,2.168,2.168,0,0,1,.481.866,3.434,3.434,0,0,1,.135.927,3.44,3.44,0,0,1-.135.927,2.171,2.171,0,0,1-.481.866,2.578,2.578,0,0,1-.94.636,3.943,3.943,0,0,1-1.515.25h-2.07v4.221h-1.3Zm1.3,4.221h1.7a4.605,4.605,0,0,0,.751-.061,2.016,2.016,0,0,0,.663-.223,1.219,1.219,0,0,0,.466-.467,1.565,1.565,0,0,0,.176-.791,1.567,1.567,0,0,0-.176-.791,1.218,1.218,0,0,0-.466-.466,2.016,2.016,0,0,0-.663-.224,4.6,4.6,0,0,0-.751-.061h-1.7Z" transform="translate(-22.355 -0.262)" fill="#fff"/><path d="M54.662,20.515H53.553l.934-3.328h1.3Z" transform="translate(-27.755 -8.908)" fill="#fff"/><path d="M77.892,4.464V9.185a4.364,4.364,0,0,1-.8.379,8.336,8.336,0,0,1-.926.277,7.79,7.79,0,0,1-.975.17,8.633,8.633,0,0,1-.926.054,5.486,5.486,0,0,1-2.171-.406,4.656,4.656,0,0,1-2.611-2.7,5.4,5.4,0,0,1-.345-1.928,5.255,5.255,0,0,1,.372-1.989,4.915,4.915,0,0,1,1.028-1.6A4.7,4.7,0,0,1,72.115.385,5.167,5.167,0,0,1,74.131,0,5.979,5.979,0,0,1,76.3.331a3.987,3.987,0,0,1,1.406.913l-.92.988a3.4,3.4,0,0,0-1.258-.791,4.325,4.325,0,0,0-1.394-.224A3.487,3.487,0,0,0,71.506,2.34a3.613,3.613,0,0,0-.73,1.211,4.244,4.244,0,0,0-.257,1.482A3.958,3.958,0,0,0,70.8,6.54a3.74,3.74,0,0,0,.784,1.211,3.629,3.629,0,0,0,1.177.8,3.7,3.7,0,0,0,1.475.291,6.38,6.38,0,0,0,1.306-.129,3.679,3.679,0,0,0,1.048-.372V5.681H74.469V4.464Z" transform="translate(-35.833 0.001)" fill="#fff"/><rect width="1.298" height="9.578" transform="translate(44.426 0.243)" fill="#fff"/><path d="M100.029.505h6.02V1.723h-4.722v3h4.4V5.944h-4.4v4.14h-1.3Z" transform="translate(-51.842 -0.262)" fill="#fff"/><path d="M111.64,20.515h-1.109l.934-3.328h1.3Z" transform="translate(-57.285 -8.908)" fill="#fff"/><path d="M127.354.5h3.368a3.941,3.941,0,0,1,1.515.251,2.576,2.576,0,0,1,.941.636,2.172,2.172,0,0,1,.48.866,3.417,3.417,0,0,1,.135.927,3.422,3.422,0,0,1-.135.927,2.175,2.175,0,0,1-.48.866,2.588,2.588,0,0,1-.941.636,3.942,3.942,0,0,1-1.515.25h-2.07v4.221h-1.3Zm1.3,4.221h1.7a4.614,4.614,0,0,0,.751-.061,2.019,2.019,0,0,0,.663-.223,1.216,1.216,0,0,0,.466-.467,1.565,1.565,0,0,0,.176-.791,1.567,1.567,0,0,0-.176-.791,1.215,1.215,0,0,0-.466-.466,2.02,2.02,0,0,0-.663-.224,4.614,4.614,0,0,0-.751-.061h-1.7Z" transform="translate(-66.004 -0.262)" fill="#fff"/><path d="M144.006.505h1.7l5.276,7.873h.027V.505h1.3v9.578h-1.65l-5.33-7.874H145.3v7.874h-1.3Z" transform="translate(-74.634 -0.262)" fill="#fff"/><path d="M173.877,4.464V9.185a4.364,4.364,0,0,1-.8.379,8.337,8.337,0,0,1-.926.277,7.791,7.791,0,0,1-.975.17,8.633,8.633,0,0,1-.926.054,5.486,5.486,0,0,1-2.171-.406,4.656,4.656,0,0,1-2.611-2.7,5.4,5.4,0,0,1-.345-1.928,5.254,5.254,0,0,1,.372-1.989,4.907,4.907,0,0,1,1.028-1.6A4.7,4.7,0,0,1,168.1.385,5.166,5.166,0,0,1,170.116,0a5.979,5.979,0,0,1,2.165.332,3.986,3.986,0,0,1,1.406.913l-.92.988a3.4,3.4,0,0,0-1.258-.791,4.325,4.325,0,0,0-1.394-.224,3.487,3.487,0,0,0-2.624,1.123,3.612,3.612,0,0,0-.73,1.211,4.244,4.244,0,0,0-.257,1.482,3.958,3.958,0,0,0,.284,1.508,3.741,3.741,0,0,0,.784,1.211,3.629,3.629,0,0,0,1.177.8,3.7,3.7,0,0,0,1.475.291,6.38,6.38,0,0,0,1.306-.129,3.679,3.679,0,0,0,1.048-.372V5.681h-2.123V4.464Z" transform="translate(-85.579 0.001)" fill="#fff"/><path d="M188.108,20.515H187l.934-3.328h1.3Z" transform="translate(-96.916 -8.908)" fill="#fff"/><path d="M203.821.505h1.3V4.483h4.965V.505h1.3v9.578h-1.3V5.7H205.12v4.384h-1.3Z" transform="translate(-105.634 -0.262)" fill="#fff"/><path d="M224.63.505h6.183V1.723h-4.884V4.577h4.546V5.795h-4.546V8.866h5.128v1.218H224.63Z" transform="translate(-116.419 -0.262)" fill="#fff"/><rect width="1.298" height="9.578" transform="translate(116.477 0.243)" fill="#fff"/><path d="M255.625,2.313A2.684,2.684,0,0,0,254.6,1.5a3.07,3.07,0,0,0-1.285-.284,3.451,3.451,0,0,0-1.468.3,3.371,3.371,0,0,0-1.122.832A3.8,3.8,0,0,0,250,3.591a4.449,4.449,0,0,0-.257,1.522,4.2,4.2,0,0,0,.243,1.434,3.58,3.58,0,0,0,.7,1.191,3.285,3.285,0,0,0,1.122.811,3.63,3.63,0,0,0,1.5.3,2.978,2.978,0,0,0,1.448-.338,3.1,3.1,0,0,0,1.055-.947l1.1.825a4.484,4.484,0,0,1-.379.426,3.8,3.8,0,0,1-.717.555,5.1,5.1,0,0,1-1.076.487,4.613,4.613,0,0,1-1.454.21,4.726,4.726,0,0,1-2.05-.433,5.015,5.015,0,0,1-2.874-4.519,5.6,5.6,0,0,1,.365-2.049,4.858,4.858,0,0,1,1.021-1.624A4.565,4.565,0,0,1,251.322.378,5.286,5.286,0,0,1,253.352,0a4.976,4.976,0,0,1,1.86.365,3.474,3.474,0,0,1,1.494,1.123Z" transform="translate(-128.717 0.001)" fill="#fff"/><path d="M116,104.9H80.1A13.741,13.741,0,0,1,66.377,91.177v-35.9A13.741,13.741,0,0,1,80.1,41.554H116a13.741,13.741,0,0,1,13.725,13.725v35.9A13.741,13.741,0,0,1,116,104.9M80.1,43a12.294,12.294,0,0,0-12.28,12.28v35.9a12.294,12.294,0,0,0,12.28,12.28H116a12.294,12.294,0,0,0,12.28-12.28v-35.9A12.294,12.294,0,0,0,116,43Z" transform="translate(-34.401 -21.536)" fill="#fff"/><path d="M107.9,189.59h1.448v7.63a3.735,3.735,0,0,1-.317,1.651,2.856,2.856,0,0,1-.792,1.01,2.811,2.811,0,0,1-1.017.513,3.936,3.936,0,0,1-1,.144,3.1,3.1,0,0,1-1.907-.581,2.676,2.676,0,0,1-.988-1.757l1.417-.316a1.7,1.7,0,0,0,.5.949,1.389,1.389,0,0,0,.98.347,1.569,1.569,0,0,0,.867-.211,1.475,1.475,0,0,0,.505-.551,2.308,2.308,0,0,0,.241-.777,6.547,6.547,0,0,0,.06-.89Z" transform="translate(-53.553 -98.259)" fill="#fff"/><path d="M120.984,189.59h3.755a4.4,4.4,0,0,1,1.689.279,2.876,2.876,0,0,1,1.048.709,2.42,2.42,0,0,1,.535.965,3.613,3.613,0,0,1,0,2.066,2.417,2.417,0,0,1-.535.965,2.87,2.87,0,0,1-1.048.709,4.392,4.392,0,0,1-1.689.279h-2.307v4.7h-1.448Zm1.448,4.7h1.9a5.179,5.179,0,0,0,.837-.068,2.233,2.233,0,0,0,.739-.249,1.368,1.368,0,0,0,.52-.52,2.088,2.088,0,0,0,0-1.765,1.366,1.366,0,0,0-.52-.52,2.255,2.255,0,0,0-.739-.249,5.179,5.179,0,0,0-.837-.068h-1.9Z" transform="translate(-62.702 -98.259)" fill="#fff"/><path d="M147.923,194v5.263a4.851,4.851,0,0,1-.89.422A9.356,9.356,0,0,1,146,200a8.829,8.829,0,0,1-1.085.189,9.591,9.591,0,0,1-1.033.06,6.128,6.128,0,0,1-2.42-.452,5.192,5.192,0,0,1-2.91-3.008,6.028,6.028,0,0,1-.385-2.149,5.855,5.855,0,0,1,.415-2.216,5.469,5.469,0,0,1,1.146-1.779,5.238,5.238,0,0,1,1.757-1.184,5.76,5.76,0,0,1,2.247-.43,6.653,6.653,0,0,1,2.413.369,4.433,4.433,0,0,1,1.568,1.018l-1.025,1.1a3.79,3.79,0,0,0-1.4-.882,4.821,4.821,0,0,0-1.553-.249,3.876,3.876,0,0,0-2.925,1.252,4.011,4.011,0,0,0-.815,1.35,4.737,4.737,0,0,0-.287,1.651,4.4,4.4,0,0,0,.317,1.681,4.164,4.164,0,0,0,.874,1.349,4.032,4.032,0,0,0,1.312.9,4.114,4.114,0,0,0,1.644.324,7.116,7.116,0,0,0,1.455-.143,4.084,4.084,0,0,0,1.169-.415v-2.97h-2.367V194Z" transform="translate(-71.608 -97.967)" fill="#fff"/></g></g><rect width="150" height="150" fill="none"/></g><g transform="translate(150)"><g transform="translate(33 20)"><g clip-path="url(#b)"><path d="M69.448,113.654H63.741v-1.427h5.708Zm-11.415,0H52.325v-1.427h5.708Zm-11.415,0H40.91v-1.427h5.708Zm-11.415,0H29.494v-1.427H35.2Zm-11.415,0H18.079v-1.427h5.708ZM12.309,113.6a13.4,13.4,0,0,1-5.683-1.845l.73-1.226a11.976,11.976,0,0,0,5.082,1.65Zm59-.071-.2-1.414a11.977,11.977,0,0,0,5-1.883l.786,1.191a13.4,13.4,0,0,1-5.591,2.106M2.29,107.643a13.39,13.39,0,0,1-2.149-5.575l1.412-.205a11.962,11.962,0,0,0,1.922,4.985Zm78.756-.526-1.221-.74a11.959,11.959,0,0,0,1.689-5.07l1.42.14a13.4,13.4,0,0,1-1.888,5.669M1.427,96.264H0V90.557H1.427ZM83,95.672H81.573V89.965H83ZM1.427,84.849H0V79.141H1.427ZM83,84.257H81.573V78.55H83ZM1.427,73.433H0V67.726H1.427ZM83,72.842H81.573V67.134H83ZM1.427,62.018H0V56.31H1.427ZM83,61.426H81.573V55.719H83ZM1.427,50.6H0V44.895H1.427ZM83,50.011H81.573V44.3H83ZM2.338,39.587l-1.319-.544a13.651,13.651,0,0,1,3.439-4.885l.958,1.058a12.225,12.225,0,0,0-3.078,4.371m78.1-.511a12.245,12.245,0,0,0-3.275-4.225l.908-1.1a13.673,13.673,0,0,1,3.659,4.72ZM10.07,32.588l-.409-1.367a13.559,13.559,0,0,1,3.89-.567H15.52v1.427H13.552a12.148,12.148,0,0,0-3.482.507m62.323-.147a12.183,12.183,0,0,0-2.944-.36H66.889V30.654h2.559a13.612,13.612,0,0,1,3.289.4Zm-11.211-.36H55.474V30.654h5.708Zm-11.415,0H44.058V30.654h5.708Zm-11.415,0H32.643V30.654h5.708Zm-11.415,0H21.228V30.654h5.708Z" transform="translate(0 -16.074)" fill="#fff"/><path d="M75,103.861H49.075a9.923,9.923,0,0,1-9.911-9.911V68.028a9.922,9.922,0,0,1,9.911-9.911H75a9.922,9.922,0,0,1,9.911,9.911V93.95A9.923,9.923,0,0,1,75,103.861m-25.922-44.7a8.877,8.877,0,0,0-8.867,8.867V93.95a8.878,8.878,0,0,0,8.867,8.867H75a8.878,8.878,0,0,0,8.867-8.867V68.028A8.878,8.878,0,0,0,75,59.161Z" transform="translate(-20.536 -30.474)" fill="#fff"/><path d="M57.332,171.992a1.854,1.854,0,0,0,.494.827,1.348,1.348,0,0,0,.917.273,1.565,1.565,0,0,0,.569-.1,1.6,1.6,0,0,0,.472-.283,1.3,1.3,0,0,0,.325-.436,1.5,1.5,0,0,0-.082-1.339,1.275,1.275,0,0,0-.518-.435,2.243,2.243,0,0,0-.7-.191,6.724,6.724,0,0,0-.751-.043v-.914a4.84,4.84,0,0,0,.98-.082,1.656,1.656,0,0,0,.6-.234.816.816,0,0,0,.3-.381,1.43,1.43,0,0,0,.088-.512,1.161,1.161,0,0,0-.371-.936,1.376,1.376,0,0,0-.926-.316,1.292,1.292,0,0,0-.767.244,1.518,1.518,0,0,0-.518.648l-1.067-.36a2.143,2.143,0,0,1,.931-1.094,2.792,2.792,0,0,1,1.4-.354,3.208,3.208,0,0,1,.9.125,2.16,2.16,0,0,1,.757.387,1.858,1.858,0,0,1,.518.659,2.137,2.137,0,0,1,.19.931,1.751,1.751,0,0,1-.365,1.089,1.809,1.809,0,0,1-.953.653v.022a1.852,1.852,0,0,1,.643.24,1.72,1.72,0,0,1,.479.436,1.886,1.886,0,0,1,.294.582,2.311,2.311,0,0,1,.1.681,2.128,2.128,0,0,1-.212.975,2.049,2.049,0,0,1-.566.7,2.5,2.5,0,0,1-.816.42,3.339,3.339,0,0,1-.975.141,2.956,2.956,0,0,1-1.552-.4,2.127,2.127,0,0,1-.931-1.274Z" transform="translate(-29.48 -87.028)" fill="#fff"/><path d="M68.674,170.092q0-.425.044-.882a5.647,5.647,0,0,1,.158-.9,4.764,4.764,0,0,1,.3-.844,2.5,2.5,0,0,1,.49-.7,2.288,2.288,0,0,1,.708-.479,2.614,2.614,0,0,1,1.905,0,2.3,2.3,0,0,1,.707.479,2.479,2.479,0,0,1,.49.7,4.8,4.8,0,0,1,.305.844,5.755,5.755,0,0,1,.157.9q.044.457.044.882a8.525,8.525,0,0,1-.109,1.307,4.486,4.486,0,0,1-.4,1.3,2.726,2.726,0,0,1-.811.991,2.465,2.465,0,0,1-2.667,0,2.731,2.731,0,0,1-.811-.991,4.5,4.5,0,0,1-.4-1.3,8.521,8.521,0,0,1-.108-1.307m1.045,0q0,.381.049.9A4.417,4.417,0,0,0,69.981,172a2.188,2.188,0,0,0,.484.822,1.28,1.28,0,0,0,1.731,0,2.2,2.2,0,0,0,.485-.822A4.443,4.443,0,0,0,72.893,171q.049-.522.049-.9,0-.261-.016-.594a5.585,5.585,0,0,0-.076-.675,4.494,4.494,0,0,0-.169-.664,2.252,2.252,0,0,0-.289-.577,1.389,1.389,0,0,0-.441-.409,1.342,1.342,0,0,0-1.241,0,1.394,1.394,0,0,0-.441.409,2.236,2.236,0,0,0-.288.577,4.38,4.38,0,0,0-.169.664,5.586,5.586,0,0,0-.077.675q-.016.332-.016.594" transform="translate(-36.01 -87.099)" fill="#fff"/><path d="M81.4,170.092q0-.425.044-.882a5.648,5.648,0,0,1,.158-.9,4.764,4.764,0,0,1,.3-.844,2.5,2.5,0,0,1,.49-.7,2.288,2.288,0,0,1,.708-.479,2.614,2.614,0,0,1,1.905,0,2.3,2.3,0,0,1,.707.479,2.479,2.479,0,0,1,.49.7,4.8,4.8,0,0,1,.305.844,5.756,5.756,0,0,1,.157.9q.044.457.044.882a8.525,8.525,0,0,1-.109,1.307,4.486,4.486,0,0,1-.4,1.3,2.726,2.726,0,0,1-.811.991,2.465,2.465,0,0,1-2.667,0,2.731,2.731,0,0,1-.811-.991,4.5,4.5,0,0,1-.4-1.3,8.521,8.521,0,0,1-.108-1.307m1.045,0q0,.381.049.9A4.417,4.417,0,0,0,82.709,172a2.188,2.188,0,0,0,.484.822,1.28,1.28,0,0,0,1.731,0,2.2,2.2,0,0,0,.485-.822A4.443,4.443,0,0,0,85.621,171q.049-.522.049-.9,0-.261-.016-.594a5.584,5.584,0,0,0-.076-.675,4.494,4.494,0,0,0-.169-.664,2.252,2.252,0,0,0-.289-.577,1.389,1.389,0,0,0-.441-.409,1.342,1.342,0,0,0-1.241,0,1.394,1.394,0,0,0-.441.409,2.236,2.236,0,0,0-.288.577,4.38,4.38,0,0,0-.169.664,5.586,5.586,0,0,0-.077.675q-.016.332-.016.594" transform="translate(-42.684 -87.099)" fill="#fff"/><path d="M94.908,165.284h.98V170.6l2.221-2.232h1.361l-2.407,2.341,2.613,2.81H98.284l-2.4-2.678v2.678h-.98Z" transform="translate(-49.766 -86.667)" fill="#fff"/><path d="M106.788,165.284h.98v3.81h.022a1.785,1.785,0,0,1,.751-.636,2.386,2.386,0,0,1,1.045-.234,2.732,2.732,0,0,1,1.084.207,2.428,2.428,0,0,1,.828.572,2.542,2.542,0,0,1,.528.86,3.031,3.031,0,0,1,.186,1.072,2.994,2.994,0,0,1-.186,1.067,2.621,2.621,0,0,1-.528.86,2.4,2.4,0,0,1-.828.577,2.732,2.732,0,0,1-1.084.207,2.4,2.4,0,0,1-1.018-.229,1.859,1.859,0,0,1-.778-.642h-.022v.74h-.98Zm2.678,7.447a1.767,1.767,0,0,0,.708-.136,1.562,1.562,0,0,0,.534-.37,1.638,1.638,0,0,0,.337-.566,2.246,2.246,0,0,0,0-1.448,1.631,1.631,0,0,0-.337-.566,1.564,1.564,0,0,0-.534-.371,1.908,1.908,0,0,0-1.415,0,1.559,1.559,0,0,0-.534.371,1.616,1.616,0,0,0-.337.566,2.246,2.246,0,0,0,0,1.448,1.623,1.623,0,0,0,.337.566,1.557,1.557,0,0,0,.534.37,1.766,1.766,0,0,0,.707.136" transform="translate(-55.995 -86.668)" fill="#fff"/><path d="M66.248,6.707a1.856,1.856,0,0,0,.494.828,1.348,1.348,0,0,0,.917.272,1.556,1.556,0,0,0,.569-.1,1.6,1.6,0,0,0,.472-.283,1.3,1.3,0,0,0,.325-.436,1.33,1.33,0,0,0,.12-.572,1.319,1.319,0,0,0-.2-.768,1.279,1.279,0,0,0-.518-.435,2.229,2.229,0,0,0-.7-.191,6.613,6.613,0,0,0-.751-.044V4.062a4.84,4.84,0,0,0,.98-.082,1.648,1.648,0,0,0,.6-.234.815.815,0,0,0,.3-.381,1.432,1.432,0,0,0,.088-.512,1.163,1.163,0,0,0-.371-.936,1.376,1.376,0,0,0-.926-.316,1.289,1.289,0,0,0-.767.245,1.519,1.519,0,0,0-.518.648L65.3,2.134a2.143,2.143,0,0,1,.931-1.094,2.792,2.792,0,0,1,1.4-.354,3.208,3.208,0,0,1,.9.125,2.177,2.177,0,0,1,.757.387,1.863,1.863,0,0,1,.518.659,2.14,2.14,0,0,1,.19.931,1.75,1.75,0,0,1-.365,1.089,1.812,1.812,0,0,1-.953.654v.022a1.851,1.851,0,0,1,.643.239,1.72,1.72,0,0,1,.479.436,1.888,1.888,0,0,1,.294.583,2.308,2.308,0,0,1,.1.68,2.125,2.125,0,0,1-.212.975,2.049,2.049,0,0,1-.566.7,2.5,2.5,0,0,1-.816.42,3.324,3.324,0,0,1-.975.141,2.952,2.952,0,0,1-1.552-.4,2.125,2.125,0,0,1-.931-1.274Z" transform="translate(-34.155 -0.36)" fill="#fff"/><path d="M78.368,6.311h.915v.806H79.3a.862.862,0,0,1,.168-.272,1.746,1.746,0,0,1,.349-.311,2.151,2.151,0,0,1,.5-.25,1.877,1.877,0,0,1,.637-.1,1.828,1.828,0,0,1,.969.24,1.78,1.78,0,0,1,.643.719,1.656,1.656,0,0,1,.708-.719,1.979,1.979,0,0,1,.926-.24,2.144,2.144,0,0,1,.98.2,1.58,1.58,0,0,1,.6.518,1.972,1.972,0,0,1,.3.729,4.314,4.314,0,0,1,.082.844v3.005h-.98V8.6a4.04,4.04,0,0,0-.038-.566,1.316,1.316,0,0,0-.158-.479.9.9,0,0,0-.338-.332,1.393,1.393,0,0,0-1.59.31,1.91,1.91,0,0,0-.3,1.122v2.82h-.98v-2.7a5.425,5.425,0,0,0-.038-.675,1.594,1.594,0,0,0-.152-.528.846.846,0,0,0-.327-.348,1.12,1.12,0,0,0-.572-.126,1.288,1.288,0,0,0-.506.1,1.2,1.2,0,0,0-.43.31,1.5,1.5,0,0,0-.294.528,2.373,2.373,0,0,0-.108.757v2.679h-.98Z" transform="translate(-41.093 -3.241)" fill="#fff"/><path d="M97.872,0h.98V3.81h.022a1.789,1.789,0,0,1,.751-.637,2.393,2.393,0,0,1,1.045-.234,2.732,2.732,0,0,1,1.084.207,2.435,2.435,0,0,1,.828.572,2.544,2.544,0,0,1,.528.86,3.038,3.038,0,0,1,.186,1.073,2.987,2.987,0,0,1-.186,1.067,2.618,2.618,0,0,1-.528.86,2.4,2.4,0,0,1-.828.577,2.732,2.732,0,0,1-1.084.207,2.4,2.4,0,0,1-1.018-.229,1.859,1.859,0,0,1-.778-.642h-.022v.74h-.98Zm2.678,7.448a1.767,1.767,0,0,0,.708-.136,1.562,1.562,0,0,0,.534-.37,1.635,1.635,0,0,0,.337-.566,2.247,2.247,0,0,0,0-1.448,1.638,1.638,0,0,0-.337-.566,1.569,1.569,0,0,0-.534-.37,1.908,1.908,0,0,0-1.415,0,1.564,1.564,0,0,0-.534.37,1.623,1.623,0,0,0-.337.566,2.247,2.247,0,0,0,0,1.448,1.621,1.621,0,0,0,.337.566,1.557,1.557,0,0,0,.534.37,1.766,1.766,0,0,0,.707.136" transform="translate(-51.32 0.001)" fill="#fff"/></g></g><rect width="150" height="150" fill="none"/></g><g transform="translate(32 31.594)"><g clip-path="url(#c)"><path d="M73.257,85.906H67.929V84.574h5.328Zm-10.655,0H57.274V84.574H62.6Zm-10.655,0H46.619V84.574h5.328Zm-10.655,0H35.965V84.574h5.328Zm-10.655,0H25.309V84.574h5.328Zm-10.655,0H14.655V84.574h5.328ZM9.188,85.427a12.7,12.7,0,0,1-4.895-2.673l.88-1a11.354,11.354,0,0,0,4.378,2.391Zm67.639-.033-.375-1.278a11.355,11.355,0,0,0,4.356-2.43l.889.992a12.694,12.694,0,0,1-4.871,2.716M1.02,78.241A12.557,12.557,0,0,1,0,73.257v-.473H1.332v.473a11.252,11.252,0,0,0,.912,4.459Zm83.911-.107L83.7,77.62a11.242,11.242,0,0,0,.871-4.363v-.583h1.332v.583a12.576,12.576,0,0,1-.975,4.878M1.332,67.457H0V62.129H1.332Zm84.574-.11H84.574V62.019h1.332ZM1.332,56.8H0V51.473H1.332Zm84.574-.11H84.574V51.364h1.332ZM1.332,46.147H0V40.819H1.332Zm84.574-.11H84.574V40.708h1.332ZM1.332,35.491H0V30.163H1.332Zm84.574-.11H84.574V30.054h1.332ZM1.332,24.836H0V19.509H1.332Zm84.574-.11H84.574V19.4h1.332ZM1.332,14.182H0V12.649A12.662,12.662,0,0,1,.625,8.71l1.266.414a11.3,11.3,0,0,0-.56,3.525Zm84.574-.11H84.574V12.649a11.294,11.294,0,0,0-.592-3.623L85.244,8.6a12.626,12.626,0,0,1,.662,4.048ZM4.454,4.844,3.49,3.925A12.724,12.724,0,0,1,8.128.833L8.6,2.076A11.4,11.4,0,0,0,4.454,4.844M81.38,4.77A11.391,11.391,0,0,0,77.2,2.039L77.668.791a12.731,12.731,0,0,1,4.668,3.051ZM72.2,1.332H66.87V0H72.2Zm-10.655,0H56.216V0h5.328Zm-10.655,0H45.56V0h5.328Zm-10.655,0H34.906V0h5.328Zm-10.655,0H24.25V0h5.328Zm-10.655,0H13.6V0h5.328Z" transform="translate(0)" fill="#fff"/><path d="M51.442,88.075H18.36A12.663,12.663,0,0,1,5.711,75.426V42.344A12.663,12.663,0,0,1,18.36,29.7H51.442A12.663,12.663,0,0,1,64.091,42.344V75.426A12.663,12.663,0,0,1,51.442,88.075M18.36,31.027A11.33,11.33,0,0,0,7.043,42.344V75.426A11.33,11.33,0,0,0,18.36,86.743H51.442A11.33,11.33,0,0,0,62.759,75.426V42.344A11.33,11.33,0,0,0,51.442,31.027Z" transform="translate(-1.271 -6.609)" fill="#fff"/><rect width="55.459" height="2.22" transform="translate(34.436 50.788) rotate(-45)" fill="#fff"/><path d="M56.438,64.23l-.079-2.22-10.937.4.4-10.939-2.22-.079-.484,13.323Z" transform="translate(-9.597 -11.438)" fill="#fff"/><path d="M93.639,27.029l-2.22-.079.4-10.937-10.939.4-.079-2.22,13.323-.484Z" transform="translate(-17.984 -3.051)" fill="#fff"/></g></g><rect width="150" height="150" fill="none"/></svg>